<svg viewBox="0 0 42 11" fill="currentColor" xmlns="http://www.w3.org/2000/svg">
<path d="M0 9.832V1.78H3.486C4.138 1.78 4.678 1.876 5.106 2.068C5.534 2.256 5.854 2.514 6.066 2.842C6.282 3.166 6.39 3.534 6.39 3.946C6.39 4.39 6.262 4.766 6.006 5.074C5.754 5.382 5.422 5.606 5.01 5.746C5.286 5.818 5.538 5.928 5.766 6.076C5.994 6.224 6.176 6.42 6.312 6.664C6.452 6.904 6.522 7.202 6.522 7.558C6.522 7.794 6.478 8.044 6.39 8.308C6.302 8.572 6.148 8.82 5.928 9.052C5.708 9.28 5.402 9.468 5.01 9.616C4.618 9.76 4.118 9.832 3.51 9.832H0ZM1.92 8.152H3.45C3.774 8.152 4.02 8.092 4.188 7.972C4.356 7.848 4.44 7.67 4.44 7.438C4.44 7.206 4.36 7.02 4.2 6.88C4.044 6.74 3.794 6.67 3.45 6.67H1.92V8.152ZM1.92 3.442V4.978H3.402C3.77 4.978 4.032 4.908 4.188 4.768C4.344 4.628 4.422 4.446 4.422 4.222C4.422 4.006 4.344 3.822 4.188 3.67C4.036 3.518 3.778 3.442 3.414 3.442H1.92Z" fill="currentColor"/>
<path d="M12.0214 9.832V6.388C12.0214 6.076 11.9454 5.846 11.7934 5.698C11.6414 5.546 11.4574 5.47 11.2414 5.47C11.0214 5.47 10.8194 5.532 10.6354 5.656C10.4514 5.78 10.3034 5.98 10.1914 6.256C10.0834 6.528 10.0294 6.89 10.0294 7.342H9.44738C9.44738 6.494 9.54738 5.804 9.74738 5.272C9.95138 4.74 10.2274 4.35 10.5754 4.102C10.9274 3.854 11.3254 3.73 11.7694 3.73C12.2774 3.73 12.6914 3.844 13.0114 4.072C13.3354 4.3 13.5734 4.614 13.7254 5.014C13.8774 5.414 13.9534 5.872 13.9534 6.388V9.832H12.0214ZM8.10938 9.832V1.552H10.0294V9.832H8.10938Z" fill="currentColor"/>
<path d="M19.684 3.886H21.604V9.832H19.684V3.886ZM15.766 3.886H17.686V7.462C17.686 7.734 17.754 7.936 17.89 8.068C18.03 8.196 18.208 8.26 18.424 8.26C18.62 8.26 18.814 8.212 19.006 8.116C19.202 8.02 19.364 7.856 19.492 7.624C19.62 7.392 19.684 7.07 19.684 6.658H20.104C20.104 7.442 20.014 8.076 19.834 8.56C19.654 9.04 19.408 9.39 19.096 9.61C18.788 9.83 18.438 9.94 18.046 9.94C17.65 9.94 17.278 9.872 16.93 9.736C16.582 9.6 16.3 9.368 16.084 9.04C15.872 8.712 15.766 8.26 15.766 7.684V3.886Z" fill="currentColor"/>
<path d="M27.537 9.832V6.388C27.537 6.076 27.461 5.846 27.309 5.698C27.157 5.546 26.973 5.47 26.757 5.47C26.537 5.47 26.335 5.532 26.151 5.656C25.967 5.78 25.819 5.98 25.707 6.256C25.599 6.528 25.545 6.89 25.545 7.342H24.963C24.963 6.494 25.063 5.804 25.263 5.272C25.467 4.74 25.743 4.35 26.091 4.102C26.443 3.854 26.841 3.73 27.285 3.73C27.793 3.73 28.207 3.844 28.527 4.072C28.851 4.3 29.089 4.614 29.241 5.014C29.393 5.414 29.469 5.872 29.469 6.388V9.832H27.537ZM23.625 9.832V3.922H25.317L25.545 4.9V9.832H23.625Z" fill="currentColor"/>
<path d="M38.29 10.102L38.044 8.524V6.31C38.044 6.014 37.99 5.784 37.882 5.62C37.774 5.456 37.544 5.374 37.192 5.374C36.984 5.374 36.814 5.406 36.682 5.47C36.554 5.53 36.458 5.612 36.394 5.716C36.334 5.816 36.304 5.926 36.304 6.046H34.228C34.228 5.582 34.338 5.2 34.558 4.9C34.778 4.596 35.108 4.37 35.548 4.222C35.988 4.074 36.536 4 37.192 4C37.764 4 38.256 4.088 38.668 4.264C39.084 4.44 39.404 4.704 39.628 5.056C39.852 5.408 39.964 5.85 39.964 6.382V10.102H38.29ZM36.43 10.294C35.902 10.294 35.456 10.206 35.092 10.03C34.732 9.85 34.46 9.608 34.276 9.304C34.092 9 34 8.664 34 8.296C34 7.948 34.096 7.648 34.288 7.396C34.48 7.14 34.764 6.942 35.14 6.802C35.52 6.662 35.986 6.592 36.538 6.592C36.874 6.592 37.17 6.61 37.426 6.646C37.686 6.682 37.952 6.726 38.224 6.778V7.858C38.024 7.814 37.816 7.78 37.6 7.756C37.388 7.732 37.18 7.72 36.976 7.72C36.692 7.72 36.466 7.766 36.298 7.858C36.134 7.946 36.052 8.092 36.052 8.296C36.052 8.444 36.126 8.574 36.274 8.686C36.422 8.794 36.656 8.848 36.976 8.848C37.248 8.848 37.462 8.794 37.618 8.686C37.774 8.578 37.884 8.442 37.948 8.278C38.012 8.114 38.044 7.952 38.044 7.792H38.494C38.494 8.248 38.422 8.666 38.278 9.046C38.134 9.426 37.91 9.73 37.606 9.958C37.302 10.182 36.91 10.294 36.43 10.294Z" fill="currentColor"/>
<rect x="31" y="3" width="2" height="7" fill="currentColor"/>
<circle cx="32" cy="1" r="1" fill="red"/>
</svg>
